<?xml version="1.0" encoding="UTF-8" standalone="no"?>
<svg
   xmlns:dc="http://purl.org/dc/elements/1.1/"
   xmlns:cc="http://creativecommons.org/ns#"
   xmlns:rdf="http://www.w3.org/1999/02/22-rdf-syntax-ns#"
   xmlns:svg="http://www.w3.org/2000/svg"
   xmlns="http://www.w3.org/2000/svg"
   xmlns:sodipodi="http://sodipodi.sourceforge.net/DTD/sodipodi-0.dtd"
   xmlns:inkscape="http://www.inkscape.org/namespaces/inkscape"
   version="1.1"
   width="24"
   height="24"
   viewBox="0 0 24 24"
   id="svg5164"
   sodipodi:docname="display.svg"
   inkscape:version="0.92.4 5da689c313, 2019-01-14">
  <metadata
     id="metadata5170">
    <rdf:RDF>
      <cc:Work
         rdf:about="">
        <dc:format>image/svg+xml</dc:format>
        <dc:type
           rdf:resource="http://purl.org/dc/dcmitype/StillImage" />
      </cc:Work>
    </rdf:RDF>
  </metadata>
  <defs
     id="defs5168" />
  <sodipodi:namedview
     pagecolor="#ffffff"
     bordercolor="#666666"
     borderopacity="1"
     objecttolerance="10"
     gridtolerance="10"
     guidetolerance="10"
     inkscape:pageopacity="0"
     inkscape:pageshadow="2"
     inkscape:window-width="1920"
     inkscape:window-height="1051"
     id="namedview5166"
     showgrid="false"
     inkscape:zoom="9.8333333"
     inkscape:cx="12"
     inkscape:cy="12"
     inkscape:window-x="1920"
     inkscape:window-y="0"
     inkscape:window-maximized="1"
     inkscape:current-layer="svg5164" />
  <path
     d="M 19.169492,4.8305085 H 4.8305085 c -0.8842373,0 -1.5932203,0.7089831 -1.5932203,1.5932204 V 8.8135596 H 4.8305085 V 6.4237289 H 19.169492 V 17.576271 H 13.59322 v 1.59322 h 5.576272 a 1.5932203,1.5932203 0 0 0 1.59322,-1.59322 V 6.4237289 c 0,-0.8842373 -0.716949,-1.5932204 -1.59322,-1.5932204 M 3.2372882,10.40678 V 12 A 7.1694915,7.1694915 0 0 1 10.40678,19.169491 H 12 C 12,14.326102 8.0727119,10.40678 3.2372882,10.40678 M 17.576271,8.0169492 H 6.4237288 v 1.2984744 c 3.1545761,1.0196614 5.6479662,3.5130514 6.6676272,6.6676274 h 4.484915 M 3.2372882,13.593221 v 1.59322 a 3.9830508,3.9830508 0 0 1 3.9830508,3.98305 h 1.5932199 a 5.5762712,5.5762712 0 0 0 -5.5762707,-5.57627 m 0,3.186439 v 2.389831 H 5.6271187 A 2.3898305,2.3898305 0 0 0 3.2372882,16.77966 Z"
     id="path5162"
     inkscape:connector-curvature="0"
     style="stroke-width:0.79661018" />
</svg>
