<?xml version="1.0" encoding="UTF-8" standalone="no"?>
<!-- Generator: Adobe Illustrator 22.1.0, SVG Export Plug-In . SVG Version: 6.00 Build 0)  -->

<svg
   xmlns:dc="http://purl.org/dc/elements/1.1/"
   xmlns:cc="http://creativecommons.org/ns#"
   xmlns:rdf="http://www.w3.org/1999/02/22-rdf-syntax-ns#"
   xmlns:svg="http://www.w3.org/2000/svg"
   xmlns="http://www.w3.org/2000/svg"
   xmlns:sodipodi="http://sodipodi.sourceforge.net/DTD/sodipodi-0.dtd"
   xmlns:inkscape="http://www.inkscape.org/namespaces/inkscape"
   version="1.1"
   id="svg8"
   inkscape:version="0.92.4 5da689c313, 2019-01-14"
   sodipodi:docname="logo-o.svg"
   x="0px"
   y="0px"
   viewBox="0 0 90.7 90.7"
   style="enable-background:new 0 0 90.7 90.7;"
   xml:space="preserve"><metadata
   id="metadata20"><rdf:RDF><cc:Work
       rdf:about=""><dc:format>image/svg+xml</dc:format><dc:type
         rdf:resource="http://purl.org/dc/dcmitype/StillImage" /><dc:title></dc:title></cc:Work></rdf:RDF></metadata><defs
   id="defs18">
		
	
			
			
			
		</defs>
<style
   type="text/css"
   id="style2">
	.st0{fill:#601111;}
	.st1{fill:#FFFFFF;}
	.st2{fill:none;stroke:#FFFFFF;stroke-width:1.5;}
</style>
<sodipodi:namedview
   bordercolor="#666666"
   borderopacity="1.0"
   id="base"
   inkscape:current-layer="layer1"
   inkscape:cx="39.204019"
   inkscape:cy="36.213937"
   inkscape:document-units="mm"
   inkscape:pagecheckerboard="true"
   inkscape:pageopacity="0.0"
   inkscape:pageshadow="2"
   inkscape:window-height="774"
   inkscape:window-maximized="0"
   inkscape:window-width="1304"
   inkscape:window-x="2176"
   inkscape:window-y="57"
   inkscape:zoom="7.1626608"
   pagecolor="#ffffff"
   showgrid="false">
	</sodipodi:namedview>
<path
   d="M 45.5 0.099609375 L 0.099609375 22.800781 L 0.099609375 68.099609 L 45.5 90.800781 L 90.800781 68.099609 L 90.800781 22.800781 L 45.5 0.099609375 z M 22 21.300781 L 67.199219 21.300781 C 78.299216 21.300781 78.599609 27.599219 77.099609 30.699219 L 73.900391 39.300781 C 73.300391 40.500781 71.999219 41 70.699219 40.5 C 67.899219 39.3 65.999609 38.600781 63.099609 38.300781 C 62.299609 38.200781 61.4 37.700781 61 36.800781 L 57.699219 29.199219 C 57.299219 28.099219 56.199219 27.5 54.199219 27.5 L 36.5 27.5 C 34.6 27.5 33.4 28.099219 33 29.199219 L 29.699219 36.800781 C 29.299219 37.700781 28.399609 38.200781 27.599609 38.300781 C 24.799609 38.500781 23.100781 39.3 20.300781 40.5 C 19.000781 41.1 17.699609 40.600781 17.099609 39.300781 L 13.900391 30.699219 C 12.500391 27.599219 12 21.300781 22 21.300781 z M 39.181641 32.154297 L 51.751953 32.154297 C 53.279272 32.154297 54.219808 32.503614 54.572266 33.320312 L 69.609375 67.970703 C 69.961834 68.787403 69.60981 69.138672 68.669922 69.138672 L 59.505859 69.138672 C 58.800942 69.138672 58.330675 69.020967 58.095703 68.904297 C 57.86073 68.787627 57.625298 68.437393 57.507812 67.970703 L 54.806641 61.671875 L 36.361328 61.671875 L 33.658203 67.970703 C 33.540717 68.437393 33.305584 68.670957 32.953125 68.904297 C 32.718153 69.020967 32.24954 69.138672 31.662109 69.138672 L 22.498047 69.138672 C 21.323186 69.138672 20.969808 68.787403 21.322266 67.970703 L 36.361328 33.320312 C 36.831272 32.503614 37.771808 32.154297 39.181641 32.154297 z M 45.408203 37.986328 C 40.238815 37.986328 36.007812 42.186774 36.007812 47.320312 C 36.007812 52.453862 40.238815 56.654297 45.408203 56.654297 C 50.577591 56.654297 54.806641 52.453862 54.806641 47.320312 C 54.806641 42.186774 50.577591 37.986328 45.408203 37.986328 z M 45.408203 42.070312 A 5.4043598 5.2502151 0 0 1 50.8125 47.320312 A 5.4043598 5.2502151 0 0 1 45.408203 52.570312 A 5.4043598 5.2502151 0 0 1 40.003906 47.320312 A 5.4043598 5.2502151 0 0 1 45.408203 42.070312 z "
   id="polygon5" />
<g
   id="layer1"
   transform="translate(0,-265)"
   inkscape:groupmode="layer"
   inkscape:label="Layer 1">
	<g
   id="text1385-5-0-1-8"
   transform="scale(1.1995273,0.83366173)">
	</g>
	
		<path
   style="stroke-width:1.17078066"
   d="m 45.642493,309.17049 a 3.2896105,3.1501292 0 0 1 -3.28961,3.15013 3.2896105,3.1501292 0 0 1 -3.289611,-3.15013 3.2896105,3.1501292 0 0 1 3.289611,-3.15012 3.2896105,3.1501292 0 0 1 3.28961,3.15012 z"
   id="circle5596_1_"
   inkscape:connector-curvature="0" />
</g>

</svg>