<?xml version="1.0" encoding="UTF-8" standalone="no"?>
<!-- Generated by IcoMoon.io -->

<svg
   xmlns:dc="http://purl.org/dc/elements/1.1/"
   xmlns:cc="http://creativecommons.org/ns#"
   xmlns:rdf="http://www.w3.org/1999/02/22-rdf-syntax-ns#"
   xmlns:svg="http://www.w3.org/2000/svg"
   xmlns="http://www.w3.org/2000/svg"
   xmlns:sodipodi="http://sodipodi.sourceforge.net/DTD/sodipodi-0.dtd"
   xmlns:inkscape="http://www.inkscape.org/namespaces/inkscape"
   version="1.1"
   width="24"
   height="24"
   viewBox="0 0 24 24"
   id="svg6"
   sodipodi:docname="cam-disabled.svg"
   inkscape:version="0.92.2 2405546, 2018-03-11">
  <metadata
     id="metadata12">
    <rdf:RDF>
      <cc:Work
         rdf:about="">
        <dc:format>image/svg+xml</dc:format>
        <dc:type
           rdf:resource="http://purl.org/dc/dcmitype/StillImage" />
        <dc:title>videocam</dc:title>
      </cc:Work>
    </rdf:RDF>
  </metadata>
  <defs
     id="defs10" />
  <sodipodi:namedview
     pagecolor="#ffffff"
     bordercolor="#666666"
     borderopacity="1"
     objecttolerance="10"
     gridtolerance="10"
     guidetolerance="10"
     inkscape:pageopacity="0"
     inkscape:pageshadow="2"
     inkscape:window-width="1682"
     inkscape:window-height="1011"
     id="namedview8"
     showgrid="false"
     inkscape:zoom="9.8333333"
     inkscape:cx="-4.220339"
     inkscape:cy="12"
     inkscape:window-x="1920"
     inkscape:window-y="0"
     inkscape:window-maximized="0"
     inkscape:current-layer="svg6" />
  <title
     id="title2">videocam</title>
  <path
     inkscape:connector-curvature="0"
     d="M 17.016,10.5 21,6.516 v 10.969 l -3.984,-3.984 v 3.516 c 0,0.563 -0.469,0.984 -1.031,0.984 h -12 c -0.563,0 -0.984,-0.422 -0.984,-0.984 V 6.986 c 0,-0.563 0.422,-0.984 0.984,-0.984 h 12 c 0.563,0 1.031,0.422 1.031,0.984 v 3.516 z"
     id="path4" />
  <rect
     style="fill:#da534f;fill-rule:evenodd;stroke-width:0.70338982"
     id="rect8"
     rx="0.70338982"
     y="12.711865"
     x="12.305086"
     height="7.0338984"
     width="7.0338984" />
  <path
     inkscape:connector-curvature="0"
     d="m 15.116958,16.228815 -1.259066,-1.259066 c -0.194701,-0.194703 -0.194701,-0.510376 0,-0.705077 0.194701,-0.194703 0.510375,-0.194703 0.705077,0 l 1.259066,1.259065 1.259066,-1.259065 c 0.194703,-0.194703 0.510376,-0.194703 0.705077,0 0.194703,0.194701 0.194703,0.510374 0,0.705077 l -1.259065,1.259066 1.259065,1.259066 c 0.194703,0.194701 0.194703,0.510376 0,0.705077 -0.194701,0.194701 -0.510374,0.194701 -0.705077,0 l -1.259066,-1.259066 -1.259066,1.259066 c -0.194702,0.194701 -0.510376,0.194701 -0.705077,0 -0.194701,-0.194701 -0.194701,-0.510376 0,-0.705077 z"
     id="use10"
     style="fill:#ffffff;fill-rule:evenodd;stroke-width:0.70338982" />
</svg>
