<?xml version="1.0" encoding="UTF-8" standalone="no"?>
<!-- Generated by IcoMoon.io -->

<svg
   xmlns:dc="http://purl.org/dc/elements/1.1/"
   xmlns:cc="http://creativecommons.org/ns#"
   xmlns:rdf="http://www.w3.org/1999/02/22-rdf-syntax-ns#"
   xmlns:svg="http://www.w3.org/2000/svg"
   xmlns="http://www.w3.org/2000/svg"
   xmlns:sodipodi="http://sodipodi.sourceforge.net/DTD/sodipodi-0.dtd"
   xmlns:inkscape="http://www.inkscape.org/namespaces/inkscape"
   version="1.1"
   width="24"
   height="24"
   viewBox="0 0 24 24"
   id="svg6"
   sodipodi:docname="phone-add.svg"
   inkscape:version="0.92.2 2405546, 2018-03-11">
  <metadata
     id="metadata12">
    <rdf:RDF>
      <cc:Work
         rdf:about="">
        <dc:format>image/svg+xml</dc:format>
        <dc:type
           rdf:resource="http://purl.org/dc/dcmitype/StillImage" />
        <dc:title>phone_paused</dc:title>
      </cc:Work>
    </rdf:RDF>
  </metadata>
  <defs
     id="defs10" />
  <sodipodi:namedview
     pagecolor="#ffffff"
     bordercolor="#666666"
     borderopacity="1"
     objecttolerance="10"
     gridtolerance="10"
     guidetolerance="10"
     inkscape:pageopacity="0"
     inkscape:pageshadow="2"
     inkscape:window-width="966"
     inkscape:window-height="633"
     id="namedview8"
     showgrid="false"
     inkscape:zoom="9.8333333"
     inkscape:cx="10.39417"
     inkscape:cy="19.775643"
     inkscape:window-x="2907"
     inkscape:window-y="199"
     inkscape:window-maximized="0"
     inkscape:current-layer="svg6" />
  <title
     id="title2">phone_paused</title>
  <g
     id="g830">
    <path
       sodipodi:nodetypes="sssssssscsccscs"
       inkscape:connector-curvature="0"
       id="path4"
       d="m 20.016,15.516 c 0.563,0 0.984,0.422 0.984,0.984 v 3.516 C 21,20.579 20.578,21 20.016,21 10.641,21 3,13.359 3,3.984 3,3.421 3.422,3 3.984,3 H 7.5 c 0.563,0 0.984,0.422 0.984,0.984 0,1.266 0.188,2.438 0.563,3.563 0.094,0.328 0.047,0.75 -0.234,1.031 L 6.61,10.781 c 1.453,2.859 3.797,5.156 6.609,6.609 l 2.203,-2.203 c 0.281,-0.281 0.703,-0.328 1.031,-0.234 1.125,0.375 2.297,0.563 3.563,0.563 z" />
    <path
       style="stroke-width:0.80419642"
       sodipodi:nodetypes="ccccccccccccc"
       id="path4-3"
       d="m 17.793618,3.0523693 v 3.2039182 h 3.241716 V 7.8775474 H 17.793618 V 11.081464 H 16.210156 V 7.8775474 H 12.96844 V 6.2562875 h 3.241716 V 3.0523693 Z"
       inkscape:connector-curvature="0" />
  </g>
</svg>
