<?xml version="1.0" encoding="UTF-8" standalone="no"?>
<svg
   xmlns:dc="http://purl.org/dc/elements/1.1/"
   xmlns:cc="http://creativecommons.org/ns#"
   xmlns:rdf="http://www.w3.org/1999/02/22-rdf-syntax-ns#"
   xmlns:svg="http://www.w3.org/2000/svg"
   xmlns="http://www.w3.org/2000/svg"
   xmlns:sodipodi="http://sodipodi.sourceforge.net/DTD/sodipodi-0.dtd"
   xmlns:inkscape="http://www.inkscape.org/namespaces/inkscape"
   version="1.1"
   width="24"
   height="24"
   viewBox="0 0 24 24"
   id="svg2659"
   sodipodi:docname="protocol-sig11.svg"
   inkscape:version="1.0.1 (3bc2e813f5, 2020-09-07)">
  <metadata
     id="metadata2665">
    <rdf:RDF>
      <cc:Work
         rdf:about="">
        <dc:format>image/svg+xml</dc:format>
        <dc:type
           rdf:resource="http://purl.org/dc/dcmitype/StillImage" />
        <dc:title>dialer_sip</dc:title>
      </cc:Work>
    </rdf:RDF>
  </metadata>
  <defs
     id="defs2663" />
  <sodipodi:namedview
     pagecolor="#ffffff"
     bordercolor="#666666"
     borderopacity="1"
     objecttolerance="10"
     gridtolerance="10"
     guidetolerance="10"
     inkscape:pageopacity="0"
     inkscape:pageshadow="2"
     inkscape:window-width="2560"
     inkscape:window-height="1411"
     id="namedview2661"
     showgrid="false"
     inkscape:zoom="18.208"
     inkscape:cx="13.626001"
     inkscape:cy="15.261237"
     inkscape:window-x="1919"
     inkscape:window-y="0"
     inkscape:window-maximized="1"
     inkscape:current-layer="g836"
     inkscape:document-rotation="0"
     inkscape:snap-grids="true" />
  <title
     id="title2655">dialer_sip</title>
  <g
     id="g836">
    <g
       aria-label="S11"
       transform="scale(0.73517277,1.3602245)"
       id="text3230"
       style="font-style:normal;font-variant:normal;font-weight:bold;font-stretch:normal;font-size:10.52px;line-height:1.25;font-family:'Source Code Pro';-inkscape-font-specification:'Source Code Pro Bold';letter-spacing:0px;word-spacing:0px;stroke-width:2.58563">
      <path
         id="path984"
         style="font-style:normal;font-variant:normal;font-weight:bold;font-stretch:normal;font-size:10.52px;font-family:'Source Code Pro';-inkscape-font-specification:'Source Code Pro Bold';stroke-width:2.58563"
         d="m 26.009212,10.392459 h 4.86024 V 9.1405789 h -1.51488 V 3.7122586 h -1.13616 c -0.51548,0.30508 -0.98888,0.4734 -1.8936,0.6101601 v 0.95732 h 1.48332 v 3.8608402 h -1.79892 z m -6.311984,0 h 4.86024 V 9.1405789 h -1.51488 V 3.7122586 h -1.13616 c -0.51548,0.30508 -0.98888,0.4734 -1.8936,0.6101601 v 0.95732 h 1.48332 v 3.8608402 h -1.79892 z m -4.008104,0.12624 c 1.70424,0 2.66156,-0.9888801 2.66156,-2.1250402 0,-0.96784 -0.56808,-1.5254 -1.4728,-1.8620401 l -0.83108,-0.35768 c -0.66276,-0.24196 -1.12564,-0.39976 -1.12564,-0.81004 0,-0.39976 0.34716,-0.62068 0.86264,-0.62068 0.67328,0 1.1046,0.19988 1.578,0.54704 l 0.789,-0.97836 c -0.62068,-0.5891201 -1.45176,-0.9047201 -2.28284,-0.9047201 -1.48332,0 -2.51428,0.9047201 -2.51428,2.0408801 0,0.9994 0.69432,1.5885201 1.46228,1.8725601 l 0.88368,0.37872 c 0.65224,0.27352 1.06252,0.39976 1.06252,0.88368 0,0.3471601 -0.30508,0.5996401 -0.96784,0.5996401 -0.66276,0 -1.30448,-0.29456 -1.81996,-0.7153601 l -0.8942,1.0625201 c 0.7364,0.6522401 1.6832,0.9888801 2.60896,0.9888801 z m 8.51306,2.495094 c 0.85021,0.09443 1.353983,0.506774 1.178193,0.961874 l -1.099784,2.847199 c -0.176101,0.45591 -0.945067,0.726048 -1.793767,0.631784 C 8.3292376,15.882186 -0.81970732,8.4130046 2.1127332,0.82127774 2.288836,0.36536911 3.0578027,0.09523177 3.9065031,0.18949575 L 9.2161649,0.7792324 C 10.066375,0.87366409 10.570146,1.2860071 10.394356,1.7411059 9.9983596,2.7662927 9.9156722,3.7468929 10.130083,4.7207987 10.16944,5.0021744 9.9664649,5.3360203 9.454219,5.5164373 L 5.4382902,6.9308841 C 6.7382508,9.4897673 9.5595382,11.743 13.351569,13.391272 l 4.015927,-1.414448 c 0.512247,-0.180417 1.164228,-0.147694 1.630154,-0.01656 1.581613,0.492365 3.292694,0.841184 5.204537,1.053525 z" />
    </g>
  </g>
</svg>
