<?xml version="1.0" encoding="UTF-8" standalone="no"?>
<svg
   xmlns:dc="http://purl.org/dc/elements/1.1/"
   xmlns:cc="http://creativecommons.org/ns#"
   xmlns:rdf="http://www.w3.org/1999/02/22-rdf-syntax-ns#"
   xmlns:svg="http://www.w3.org/2000/svg"
   xmlns="http://www.w3.org/2000/svg"
   xmlns:sodipodi="http://sodipodi.sourceforge.net/DTD/sodipodi-0.dtd"
   xmlns:inkscape="http://www.inkscape.org/namespaces/inkscape"
   version="1.1"
   width="24"
   height="24"
   viewBox="0 0 24 24"
   id="svg2659"
   sodipodi:docname="protocol-ion.svg"
   inkscape:version="1.0.1 (3bc2e813f5, 2020-09-07)">
  <metadata
     id="metadata2665">
    <rdf:RDF>
      <cc:Work
         rdf:about="">
        <dc:format>image/svg+xml</dc:format>
        <dc:type
           rdf:resource="http://purl.org/dc/dcmitype/StillImage" />
        <dc:title>dialer_sip</dc:title>
      </cc:Work>
    </rdf:RDF>
  </metadata>
  <defs
     id="defs2663" />
  <sodipodi:namedview
     pagecolor="#ffffff"
     bordercolor="#666666"
     borderopacity="1"
     objecttolerance="10"
     gridtolerance="10"
     guidetolerance="10"
     inkscape:pageopacity="0"
     inkscape:pageshadow="2"
     inkscape:window-width="2560"
     inkscape:window-height="1411"
     id="namedview2661"
     showgrid="false"
     inkscape:zoom="18.208"
     inkscape:cx="13.626001"
     inkscape:cy="15.178856"
     inkscape:window-x="1919"
     inkscape:window-y="0"
     inkscape:window-maximized="1"
     inkscape:current-layer="g836"
     inkscape:document-rotation="0"
     inkscape:snap-grids="true" />
  <title
     id="title2655">dialer_sip</title>
  <g
     id="g836">
    <g
       aria-label="ION"
       transform="scale(0.73517277,1.3602245)"
       id="text3230"
       style="font-style:normal;font-variant:normal;font-weight:bold;font-stretch:normal;font-size:10.52px;line-height:1.25;font-family:'Source Code Pro';-inkscape-font-specification:'Source Code Pro Bold';letter-spacing:0px;word-spacing:0px;stroke-width:2.58563">
      <path
         id="path944"
         style="font-style:normal;font-variant:normal;font-weight:bold;font-stretch:normal;font-size:10.52px;font-family:'Source Code Pro';-inkscape-font-specification:'Source Code Pro Bold';stroke-width:2.58563"
         d="m 25.872452,10.392459 h 1.48332 V 7.9623388 c 0,-0.81004 -0.14728,-1.7252801 -0.22092,-2.4827201 h 0.04208 l 0.58912,1.4938401 1.44124,3.4190002 h 1.58852 V 3.5334186 h -1.48332 v 2.4301201 c 0,0.8100401 0.14728,1.7673601 0.22092,2.4932401 h -0.04208 l -0.58912,-1.51488 -1.44124,-3.4084802 h -1.58852 z m -3.850304,0.12624 c 1.6306,0 2.75624,-1.2413601 2.75624,-3.5873202 0,-2.2933601 -1.12564,-3.5242002 -2.75624,-3.5242002 -1.6306,0 -2.75624,1.2308401 -2.75624,3.5242002 0,2.3459601 1.12564,3.5873202 2.75624,3.5873202 z m 0,-1.3360401 c -0.71536,0 -1.16772,-0.7679601 -1.16772,-2.2512801 0,-1.4202001 0.45236,-2.1881601 1.16772,-2.1881601 0.71536,0 1.16772,0.76796 1.16772,2.1881601 0,1.48332 -0.45236,2.2512801 -1.16772,2.2512801 z m -8.689504,1.2098001 h 4.75504 V 9.0879789 h -1.59904 V 4.8378987 h 1.59904 V 3.5334186 h -4.75504 v 1.3044801 h 1.59904 v 4.2500802 h -1.59904 z m 10.86954,2.621334 c 0.85021,0.09443 1.353983,0.506774 1.178193,0.961874 l -1.099784,2.847199 c -0.176101,0.45591 -0.945067,0.726048 -1.793767,0.631784 C 8.3292376,15.882186 -0.81970732,8.4130046 2.1127332,0.82127774 2.288836,0.36536911 3.0578027,0.09523177 3.9065031,0.18949575 L 9.2161649,0.7792324 C 10.066375,0.87366409 10.570146,1.2860071 10.394356,1.7411059 9.9983596,2.7662927 9.9156722,3.7468929 10.130083,4.7207987 10.16944,5.0021744 9.9664649,5.3360203 9.454219,5.5164373 L 5.4382902,6.9308841 C 6.7382508,9.4897673 9.5595382,11.743 13.351569,13.391272 l 4.015927,-1.414448 c 0.512247,-0.180417 1.164228,-0.147694 1.630154,-0.01656 1.581613,0.492365 3.292694,0.841184 5.204537,1.053525 z" />
    </g>
  </g>
</svg>
